<?xml version="1.0" encoding="UTF-8"?>
<svg width="24" height="24" viewBox="0 0 24 24" fill="none" xmlns="http://www.w3.org/2000/svg">
  <path d="M8 4H6C4.89543 4 4 4.89543 4 6V18C4 19.1046 4.89543 20 6 20H18C19.1046 20 20 19.1046 20 18V6C20 4.89543 19.1046 4 18 4H16" stroke="#3b82f6" stroke-width="2" stroke-linecap="round" stroke-linejoin="round"/>
  <path d="M16 2H12C10.8954 2 10 2.89543 10 4V6H18V4C18 2.89543 17.1046 2 16 2Z" stroke="#3b82f6" stroke-width="2" stroke-linecap="round" stroke-linejoin="round"/>
  <path d="M10 10H14M10 14H14M10 18H12" stroke="#3b82f6" stroke-width="2" stroke-linecap="round" stroke-linejoin="round"/>
</svg> 