<?xml version="1.0" encoding="UTF-8"?>
<svg width="32" height="32" viewBox="0 0 32 32" fill="none" xmlns="http://www.w3.org/2000/svg">
  <rect width="32" height="32" rx="8" fill="#3b82f6"/>
  <path d="M16 4H12C10.8954 4 10 4.89543 10 6V8H22V6C22 4.89543 21.1046 4 20 4H16Z" fill="white"/>
  <path d="M8 6C8 4.89543 8.89543 4 10 4H12V8H10C8.89543 8 8 7.10457 8 6Z" fill="white"/>
  <path d="M24 6C24 4.89543 23.1046 4 22 4H20V8H22C23.1046 8 24 7.10457 24 6Z" fill="white"/>
  <path d="M22 8H10C8.89543 8 8 8.89543 8 10V24C8 25.1046 8.89543 26 10 26H22C23.1046 26 24 25.1046 24 24V10C24 8.89543 23.1046 8 22 8Z" fill="white"/>
  <path d="M14 14H18M14 18H18M14 22H16" stroke="#3b82f6" stroke-width="2" stroke-linecap="round" stroke-linejoin="round"/>
</svg> 